<?xml version="1.0" encoding="UTF-8"?>
<svg id="Layer_3" xmlns="http://www.w3.org/2000/svg" version="1.1" viewBox="0 0 24 22">
  <!-- Generator: Adobe Illustrator 29.8.1, SVG Export Plug-In . SVG Version: 2.1.1 Build 2)  -->
  <rect x="-1.327" y="9.397" width="28.1" height="2" transform="translate(-3.678 11.384) rotate(-42.7)"/>
  <path d="M17.626.512c-2.542,0-4.717,1.561-5.626,3.775-.909-2.214-3.084-3.775-5.626-3.775C3.015.512.292,3.235.292,6.594c0,0-.005.162.023.458.033.445.111.878.235,1.291.396,1.557,1.411,4.035,3.951,6.918L19.974.983c-.723-.303-1.516-.471-2.348-.471Z"/>
  <path d="M22.959,3.672l-15.598,14.394c1.298,1.117,2.82,2.264,4.639,3.422,8.423-5.361,10.787-10.537,11.449-13.144.124-.413.202-.846.235-1.291.028-.295.023-.458.023-.458,0-1.059-.272-2.055-.748-2.922Z"/>
</svg>