<?xml version="1.0" encoding="UTF-8"?>
<svg id="Layer_3" xmlns="http://www.w3.org/2000/svg" version="1.1" viewBox="0 0 24 22">
  <!-- Generator: Adobe Illustrator 29.8.1, SVG Export Plug-In . SVG Version: 2.1.1 Build 2)  -->
  <defs>
    <style>
      .st0 {
        fill: #fefbe8;
      }
    </style>
  </defs>
  <path class="st0" d="M12,.936c-3.882,0-7.04,3.158-7.04,7.04,0,.974.199,1.922.59,2.817l.108.179c.939,1.179,1.993,2.791,2.058,3.338l1.611-.193c-.146-1.213-1.839-3.441-2.331-4.067-.274-.661-.414-1.358-.414-2.073,0-2.987,2.43-5.418,5.417-5.418s5.417,2.431,5.417,5.418c0,.715-.139,1.413-.414,2.073-.493.626-2.185,2.854-2.331,4.067l1.611.193c.066-.547,1.119-2.158,2.058-3.338l.108-.179c.391-.895.59-1.842.59-2.817,0-3.882-3.158-7.04-7.04-7.04Z"/>
  <rect class="st0" x="8.429" y="16.162" width="7.403" height="1.622"/>
  <rect class="st0" x="9.462" y="19.442" width="5.337" height="1.622"/>
</svg>