<?xml version="1.0" encoding="UTF-8"?>
<svg id="Layer_3" xmlns="http://www.w3.org/2000/svg" version="1.1" viewBox="0 0 24 22">
  <!-- Generator: Adobe Illustrator 29.8.1, SVG Export Plug-In . SVG Version: 2.1.1 Build 2)  -->
  <defs>
    <style>
      .st0 {
        fill: #fefbe8;
      }
    </style>
  </defs>
  <path class="st0" d="M20.371,1.798H3.629c-1.087,0-1.971.884-1.971,1.971v14.463c0,1.087.884,1.971,1.971,1.971h16.741c1.087,0,1.971-.884,1.971-1.971V3.769c0-1.087-.884-1.971-1.971-1.971ZM3.091,18.231V3.769c0-.297.242-.539.539-.539h16.741c.297,0,.539.242.539.539v7.748c-.92-.887-2.254-1.879-3.782-2.09-1.218-.169-2.362.175-3.398,1.019-3.25,2.65-6.773,7.146-7.674,8.325h-2.425c-.297,0-.539-.242-.539-.539ZM20.371,18.77H7.875c1.396-1.756,4.208-5.135,6.759-7.216.725-.591,1.476-.823,2.294-.711,1.875.256,3.523,2.215,3.982,2.806v4.581c0,.297-.242.539-.539.539Z"/>
  <path class="st0" d="M7.233,10.561c1.453,0,2.636-1.182,2.636-2.636s-1.183-2.636-2.636-2.636-2.636,1.183-2.636,2.636,1.182,2.636,2.636,2.636ZM7.233,6.722c.664,0,1.204.54,1.204,1.204s-.54,1.204-1.204,1.204-1.204-.54-1.204-1.204.54-1.204,1.204-1.204Z"/>
</svg>