<?xml version="1.0" encoding="UTF-8"?>
<svg id="Layer_3" xmlns="http://www.w3.org/2000/svg" version="1.1" viewBox="0 0 24 22">
  <!-- Generator: Adobe Illustrator 29.8.1, SVG Export Plug-In . SVG Version: 2.1.1 Build 2)  -->
  <defs>
    <style>
      .st0 {
        fill: #fefbe8;
      }
    </style>
  </defs>
  <path class="st0" d="M12,.659C6.298.659,1.659,5.298,1.659,11s4.639,10.34,10.341,10.34,10.342-4.638,10.342-10.34S17.702.659,12,.659ZM12,19.91c-4.912,0-8.909-3.997-8.909-8.91S7.087,2.091,12,2.091s8.91,3.997,8.91,8.909-3.997,8.91-8.91,8.91Z"/>
  <path class="st0" d="M12,15.851c-1.732,0-3.346-.941-4.211-2.456l-1.243.711c1.12,1.959,3.21,3.175,5.454,3.175s4.334-1.216,5.454-3.175l-1.243-.711c-.866,1.515-2.479,2.456-4.211,2.456Z"/>
  <path class="st0" d="M8.731,10.06c.707,0,1.281-.573,1.281-1.281s-.573-1.281-1.281-1.281-1.281.573-1.281,1.281.573,1.281,1.281,1.281Z"/>
  <path class="st0" d="M15.552,10.06c.707,0,1.281-.573,1.281-1.281s-.573-1.281-1.281-1.281-1.281.573-1.281,1.281.573,1.281,1.281,1.281Z"/>
</svg>