<?xml version="1.0" encoding="UTF-8"?>
<svg id="Layer_3" xmlns="http://www.w3.org/2000/svg" version="1.1" viewBox="0 0 24 22">
  <!-- Generator: Adobe Illustrator 29.8.1, SVG Export Plug-In . SVG Version: 2.1.1 Build 2)  -->
  <defs>
    <style>
      .st0 {
        fill: #fefbe8;
      }
    </style>
  </defs>
  <path class="st0" d="M3.636,10.861h2.566c-.202,1.7-1.002,5.786-4.025,6.007l-.656.048v3.277h1.084c.732,0,1.428-.084,2.067-.247,2.179-.556,7.247-2.626,7.247-9.794V1.806H3.636v9.055ZM5.051,3.221h5.454v6.932c0,5.953-3.874,7.833-6.183,8.423-.43.11-.894.175-1.386.196v-.583c4.439-.933,4.735-7.709,4.745-8.009l.026-.734h-2.657V3.221Z"/>
  <path class="st0" d="M14.196,1.806v9.055h2.566c-.202,1.7-1.003,5.786-4.025,6.007l-.656.048v3.277h1.084c.733,0,1.428-.084,2.067-.247,2.179-.556,7.247-2.626,7.247-9.794V1.806h-8.283ZM21.064,10.153c0,5.953-3.874,7.833-6.183,8.423-.429.11-.894.175-1.385.196v-.583c4.438-.933,4.735-7.709,4.745-8.009l.026-.734h-2.657V3.221h5.453v6.932Z"/>
</svg>