<?xml version="1.0" encoding="UTF-8"?>
<svg id="Layer_3" xmlns="http://www.w3.org/2000/svg" version="1.1" viewBox="0 0 24 22">
  <!-- Generator: Adobe Illustrator 29.8.1, SVG Export Plug-In . SVG Version: 2.1.1 Build 2)  -->
  <defs>
    <style>
      .st0 {
        fill: #fefbe8;
      }
    </style>
  </defs>
  <path class="st0" d="M18.408,6.687h-2.91v1.6h2.91c.188,0,.341.153.341.341v10.941c0,.188-.153.341-.341.341H5.692c-.188,0-.341-.153-.341-.341v-10.941c0-.188.153-.341.341-.341h2.974v-1.6h-2.974c-1.07,0-1.94.871-1.94,1.94v10.941c0,1.07.87,1.94,1.94,1.94h12.717c1.07,0,1.94-.87,1.94-1.94v-10.941c0-1.07-.87-1.94-1.94-1.94Z"/>
  <polygon class="st0" points="9.044 5.385 11.25 3.23 11.25 16.354 12.85 16.354 12.85 3.201 15.107 5.356 15.143 5.391 16.212 4.27 16.246 4.233 12.078 .252 12.044 .219 7.961 4.205 7.926 4.24 9.009 5.349 9.044 5.385"/>
</svg>