<?xml version="1.0" encoding="UTF-8"?>
<svg id="Layer_3" xmlns="http://www.w3.org/2000/svg" version="1.1" viewBox="0 0 24 22">
  <!-- Generator: Adobe Illustrator 29.8.1, SVG Export Plug-In . SVG Version: 2.1.1 Build 2)  -->
  <defs>
    <style>
      .st0 {
        fill: #fefbe8;
      }
    </style>
  </defs>
  <path class="st0" d="M17.44,6.917h2.212l-1.552,1.527,1.18,1.198,3.839-3.778-4.003-3.418-1.092,1.279,1.376,1.175h-1.96c-2.054,0-3.987,1.002-5.169,2.679l-4.253,6.033c-.806,1.143-2.121,1.825-3.52,1.825H.827v2.017h3.671c2.054,0,3.986-1.002,5.169-2.679l4.253-6.033c.806-1.143,2.121-1.825,3.521-1.825Z"/>
  <path class="st0" d="M8.018,8.33l.39.553,1.171-1.825c-1.189-1.61-3.075-2.571-5.081-2.571H.827v2.017h3.671c1.398,0,2.714.683,3.52,1.827Z"/>
  <path class="st0" d="M19.308,12.405l-1.163,1.213,1.466,1.407h-2.171c-1.399,0-2.715-.682-3.521-1.826l-.843-1.195-1.135,1.891.329.467c1.184,1.677,3.116,2.679,5.169,2.679h1.96l-1.376,1.175,1.092,1.279,4.011-3.426-3.819-3.665Z"/>
</svg>