<?xml version="1.0" encoding="UTF-8"?>
<svg id="Layer_3" xmlns="http://www.w3.org/2000/svg" version="1.1" viewBox="0 0 24 22">
  <!-- Generator: Adobe Illustrator 29.8.1, SVG Export Plug-In . SVG Version: 2.1.1 Build 2)  -->
  <defs>
    <style>
      .st0 {
        fill: #fefbe8;
      }
    </style>
  </defs>
  <path class="st0" d="M20.37,1.798H3.63c-1.087,0-1.971.884-1.971,1.971v14.462c0,1.087.884,1.971,1.971,1.971h16.741c1.087,0,1.971-.884,1.971-1.971V3.769c0-1.087-.884-1.971-1.971-1.971ZM16.697,3.23v7.054H7.303V3.23h9.394ZM5.903,10.284h-2.812v-2.694h2.812v2.694ZM5.903,11.716v3.106h-2.812v-3.106h2.812ZM7.303,18.77v-7.054h9.394v7.054H7.303ZM18.097,11.716h2.812v3.106h-2.812v-3.106ZM18.097,10.284v-2.694h2.812v2.694h-2.812ZM20.909,3.769v2.39h-2.812v-2.928h2.274c.297,0,.539.242.539.539ZM3.63,3.23h2.274v2.928h-2.812v-2.39c0-.297.242-.539.539-.539ZM3.091,18.231v-1.977h2.812v2.516h-2.274c-.297,0-.539-.242-.539-.539ZM20.37,18.77h-2.274v-2.516h2.812v1.977c0,.297-.242.539-.539.539Z"/>
</svg>