<?xml version="1.0" encoding="UTF-8"?>
<svg id="Layer_3" xmlns="http://www.w3.org/2000/svg" version="1.1" viewBox="0 0 24 22">
  <!-- Generator: Adobe Illustrator 29.8.1, SVG Export Plug-In . SVG Version: 2.1.1 Build 2)  -->
  <defs>
    <style>
      .st0 {
        fill: #fefbe8;
      }
    </style>
  </defs>
  <path class="st0" d="M12,.659C6.298.659,1.659,5.298,1.659,11s4.639,10.341,10.341,10.341,10.341-4.639,10.341-10.341S17.702.659,12,.659ZM20.873,10.284h-4.63c-.084-2.998-.694-6.003-1.784-7.84,3.498,1.007,6.114,4.099,6.414,7.84ZM12,19.909c-1.1,0-2.671-3.171-2.81-8.193h5.621c-.139,5.022-1.711,8.193-2.81,8.193ZM9.19,10.284c.139-5.022,1.711-8.193,2.81-8.193s2.671,3.171,2.81,8.193h-5.621ZM9.541,2.444c-1.09,1.837-1.7,4.843-1.784,7.84H3.127c.3-3.741,2.917-6.833,6.414-7.84ZM3.127,11.716h4.63c.084,2.998.694,6.003,1.784,7.84-3.498-1.007-6.114-4.099-6.414-7.84ZM14.459,19.556c1.09-1.837,1.7-4.843,1.784-7.84h4.63c-.3,3.741-2.917,6.833-6.414,7.84Z"/>
</svg>