<?xml version="1.0" encoding="UTF-8"?>
<svg id="Layer_13" xmlns="http://www.w3.org/2000/svg" version="1.1" viewBox="0 0 89 135">
  <!-- Generator: Adobe Illustrator 29.8.1, SVG Export Plug-In . SVG Version: 2.1.1 Build 2)  -->
  <defs>
    <style>
      .st0 {
        fill: #fefbe8;
      }
    </style>
  </defs>
  <path class="st0" d="M47.201,11.632v13.026c-.209-.912-3.489-14.724-21.069-14.724C3.769,9.934,4.969,33.392,4.969,33.392v5.645h35.583v-6.725s-.05-2.823,3.242-2.87c3.074-.043,3.349,2.081,3.406,2.676v34.825c-.22-.963-3.775-17.029-22.922-17.029C-.05,49.915,1.256,76.441,1.256,76.441v31.902s-1.306,25.446,23.023,25.446c19.147,0,22.702-14.985,22.922-15.949v14.242h40.556V11.632h-40.556ZM44.506,112.003c-3.542,0-3.542-3.66-3.542-3.66v-31.902s0-3.924,3.542-3.924,3.484,3.091,3.542,3.726v32.298c-.058.635-.294,3.462-3.542,3.462Z"/>
</svg>