<?xml version="1.0" encoding="UTF-8"?>
<svg id="Layer_11" xmlns="http://www.w3.org/2000/svg" version="1.1" viewBox="0 0 89 135">
  <!-- Generator: Adobe Illustrator 29.8.1, SVG Export Plug-In . SVG Version: 2.1.1 Build 2)  -->
  <defs>
    <style>
      .st0 {
        fill: #fefbe8;
      }
    </style>
  </defs>
  <path class="st0" d="M88.812,133.125l-.848-104.464s1.48-22.376-19.16-25.446c-19.174-2.852-24.308,13.147-24.308,13.147,0,0-5.134-15.745-24.3-13.147C-.482,6.018,1.036,28.662,1.036,28.662L.188,133.125h32.925l-5-102.237s-.064-3.48,3.396-3.48c3.405,0,3.492,2.136,3.641,2.95l4.212,102.767h10.268l6.213-102.729c.14-.806.408-2.897,3.414-2.897,3.8,0,3.631,3.39,3.631,3.39l-7.001,102.237h32.925Z"/>
</svg>