<?xml version="1.0" encoding="UTF-8"?>
<svg id="Layer_11" xmlns="http://www.w3.org/2000/svg" version="1.1" viewBox="0 0 89 135">
  <!-- Generator: Adobe Illustrator 29.8.1, SVG Export Plug-In . SVG Version: 2.1.1 Build 2)  -->
  <defs>
    <style>
      .st0 {
        fill: #fefbe8;
      }
    </style>
  </defs>
  <path class="st0" d="M44.504,15.362S49.638-.383,68.804,2.215c20.678,2.803,19.16,25.446,19.16,25.446l.848,105.464h-31.925s-.97-101.62-.97-101.62c-.016-1.723-1.419-3.111-3.142-3.109h0c-1.732.002-3.136,1.406-3.136,3.139v101.59s-5.139,0-5.139,0h-5.139V31.535c0-1.732-1.403-3.137-3.136-3.139h0c-1.723-.002-3.125,1.386-3.142,3.109l-.97,101.62H.188L1.036,27.661S-.482,5.018,20.196,2.215c19.166-2.598,24.3,13.147,24.3,13.147"/>
</svg>