<?xml version="1.0" encoding="UTF-8"?>
<svg id="Layer_10" xmlns="http://www.w3.org/2000/svg" version="1.1" viewBox="0 0 89 135">
  <!-- Generator: Adobe Illustrator 29.8.1, SVG Export Plug-In . SVG Version: 2.1.1 Build 2)  -->
  <defs>
    <style>
      .st0 {
        fill: #fefbe8;
      }
    </style>
  </defs>
  <path class="st0" d="M53.441,133.114c18.914,0,34.248-15.333,34.248-34.248v-63.426c0-18.914-15.333-34.248-34.248-34.248h-17.883c-18.914.001-34.247,15.334-34.247,34.249v63.426c0,18.914,15.333,34.248,34.248,34.248h17.883,0ZM44.5,106.061h0c-1.957,0-3.543-1.586-3.543-3.543V31.238c0-1.957,1.586-3.543,3.543-3.543h0c1.957,0,3.543,1.586,3.543,3.543v71.28c0,1.957-1.586,3.543-3.543,3.543Z"/>
</svg>